<?xml version="1.0" encoding="UTF-8" standalone="no"?>
<!-- Created with Inkscape (http://www.inkscape.org/) -->

<svg
   width="1280"
   height="720"
   viewBox="0 0 1280 720"
   version="1.1"
   id="svg1"
   xml:space="preserve"
   inkscape:version="1.3.2 (091e20ef0f, 2023-11-25, custom)"
   sodipodi:docname="big icon green?.svg"
   xmlns:inkscape="http://www.inkscape.org/namespaces/inkscape"
   xmlns:sodipodi="http://sodipodi.sourceforge.net/DTD/sodipodi-0.dtd"
   xmlns="http://www.w3.org/2000/svg"
   xmlns:svg="http://www.w3.org/2000/svg"><sodipodi:namedview
     id="namedview1"
     pagecolor="#505050"
     bordercolor="#ffffff"
     borderopacity="1"
     inkscape:showpageshadow="0"
     inkscape:pageopacity="0"
     inkscape:pagecheckerboard="1"
     inkscape:deskcolor="#505050"
     inkscape:document-units="px"
     inkscape:zoom="0.76328125"
     inkscape:cx="640.65507"
     inkscape:cy="360.94166"
     inkscape:window-width="2516"
     inkscape:window-height="1332"
     inkscape:window-x="0"
     inkscape:window-y="0"
     inkscape:window-maximized="1"
     inkscape:current-layer="layer1" /><defs
     id="defs1"><inkscape:perspective
       sodipodi:type="inkscape:persp3d"
       inkscape:vp_x="-91.501702 : -76.431927 : 1"
       inkscape:vp_y="0 : 1000 : 0"
       inkscape:vp_z="435.91426 : -76.431927 : 1"
       inkscape:persp3d-origin="172.20628 : -161.76527 : 1"
       id="perspective12" /></defs><g
     inkscape:label="Layer 1"
     inkscape:groupmode="layer"
     id="layer1"><g
       inkscape:label="Layer 1"
       id="layer1-5"
       transform="matrix(0.7711512,0,0,0.7711512,10.082998,158.62319)"><path
         d="m 240.87789,110.55955 c -8.46465,0.64917 -16.34281,4.21633 -24.43845,6.51877 -60.5679,20.30283 -116.24147,57.27313 -155.209753,108.25136 -20.502139,28.12288 -32.810012,63.53979 -28.577191,98.55058 4.713607,34.47228 30.613923,64.74966 63.633354,75.42766 31.06026,12.29173 65.04342,12.54828 97.9563,12.35959 54.89368,-0.91006 109.60106,-6.02506 164.4478,-8.06163 28.65849,-1.82452 58.22458,-8.68917 81.226,-26.74122 24.71629,-18.40379 41.2969,-48.49486 40.5045,-79.65163 -0.0904,-33.04876 -16.68372,-64.78916 -41.59361,-86.04149 -24.98131,-23.50471 -53.53222,-42.74373 -81.85475,-61.92008 -34.74796,-21.88707 -74.40648,-38.69548 -116.0942,-38.69191 z"
         style="fill:#2af442;fill-opacity:1;stroke:#08b408;stroke-width:63.2009;stroke-opacity:0.564739"
         id="path66" /><path
         style="fill:#fffdfd;fill-opacity:0.871012;stroke:#ffffff;stroke-width:9.755;stroke-dasharray:none;stroke-dashoffset:0;stroke-opacity:0.544652"
         id="path73"
         d="m 169.59841,130.29959 c -4.93369,1.09294 -9.86433,2.39594 -14.48569,4.4837 -3.5324,1.59581 -6.79418,3.66597 -10.055,5.73618 -3.91055,1.92884 -7.17012,4.82946 -10.65264,7.39029 -0.18343,0.11834 -0.37121,0.23019 -0.55029,0.35502 -0.53245,0.37117 -1.28619,0.85221 -1.86148,1.28132 -2.59523,1.9358 -3.80746,2.97549 -2.19651,1.61744 -2.25212,1.46764 -4.20037,3.32714 -6.32273,4.96056 -2.24941,1.73718 -4.18373,3.81478 -6.11253,5.88751 -0.92842,0.99769 -0.48478,1.08437 -0.98041,0.96731 -2.1762,1.7345 2.26982,-1.71972 -1.59986,1.30126 -0.1403,0.10954 0.25634,-0.24817 0.39765,-0.35641 0.24403,-0.18692 1.02015,-0.68543 0.75639,-0.52755 -0.62473,0.37394 -1.22695,0.78428 -1.84042,1.17642 -2.29158,1.6448 -1.30303,0.87951 -3.63479,2.80226 -0.16294,0.13436 -0.65298,0.53552 -0.48382,0.40907 0.45751,-0.34201 1.77714,-1.43485 1.34947,-1.05618 -4.74231,4.19893 -2.09184,1.32309 -5.29598,5.09366 5.48479,-6.43681 -1.13921,1.79798 -1.85044,2.58266 -0.93007,1.02613 1.58555,-2.2775 2.49342,-3.32332 0.0257,-0.0297 -0.0661,0.0437 -0.0929,0.0724 -0.82809,0.88654 -1.64714,1.78147 -2.47071,2.6722 -1.53333,1.82668 1.14234,-1.00935 1.56379,-1.63464 0.40442,-0.60005 -1.02783,1.019 -1.55262,1.51721 -0.20711,0.19663 0.80408,-0.81133 0.59936,-0.61222 -2.04008,1.98424 -1.46013,1.38262 -2.92573,3.01646 -2.555718,3.40886 -1.28561,1.52299 -3.091029,4.5179 -0.226707,0.37607 0.451591,-0.75331 0.669468,-1.13457 0.01131,-0.0198 -0.03553,0.0294 -0.04859,0.0481 -0.310061,0.44344 -0.611776,0.89266 -0.920116,1.3373 -0.164517,0.23724 0.32576,-0.47673 0.48864,-0.7151 -2.187668,2.5526 -2.918918,5.27505 -4.350457,8.45688 -0.07785,0.17304 0.07554,-0.37485 0.15163,-0.54867 0.571966,-1.30662 1.193265,-2.59109 1.789897,-3.88663 -15.313459,23.7802 18.316827,45.4367 33.630287,21.6565 v 0 c 0.82147,-1.6447 1.70392,-3.26032 2.46441,-4.93409 0.23577,-0.51889 0.78604,-2.13243 0.51784,-1.62953 -4.74697,8.90114 -0.81446,2.88718 -2.92814,5.83491 -0.0982,0.13693 0.20436,-0.26796 0.30654,-0.40193 1.34726,-1.82925 1.62102,-2.17147 3.18682,-4.64296 0.55162,-0.87069 -3.38408,5.34367 -1.84885,2.47857 -0.48195,0.41648 -2.97358,2.75226 0.99207,-0.96217 0.19975,-0.1871 -0.79783,0.74847 -0.61103,0.54844 3.49832,-3.74606 1.98266,-1.83167 3.11343,-3.27563 -4.81659,4.97561 0.31324,-0.11682 0.72577,-0.61719 0.89339,-1.08362 3.59823,-4.27553 2.51804,-3.378 -1.41174,1.17301 -2.6,2.64257 -3.53434,4.22244 -0.69598,1.17684 1.87088,-1.99429 2.80632,-2.99143 -2.17416,2.44733 -0.82205,1.08941 -4.24777,3.87372 -0.63522,0.68223 1.50992,-1.09389 2.25087,-1.65951 1.95169,-1.48985 0.25883,-0.28326 0.23338,-0.26805 -0.0451,0.027 0.0741,-0.0746 0.11117,-0.11197 -0.99067,0.39908 0.26629,-0.0966 2.03339,-1.29696 1.35384,-0.91963 2.85156,-2.13556 4.11356,-3.19994 0.41778,-0.35236 0.8169,-0.72629 1.22536,-1.08943 1.52595,-1.46206 3.11311,-2.91302 4.41442,-4.58698 2.2094,-1.71574 3.04787,-2.61943 4.81941,-3.85216 0.6865,-0.51072 1.41389,-0.97066 2.05952,-1.53216 0.40224,-0.34984 -0.91648,0.55282 -1.32595,0.89417 -0.34022,0.28362 0.74832,-0.47424 1.11689,-0.7199 1.25293,-0.83509 2.44664,-1.73843 3.69856,-2.57676 2.69235,-2.02289 5.15149,-4.28047 8.2421,-5.72559 1.08457,-0.69655 2.21836,-1.31783 3.27538,-2.05551 0.11442,-0.0799 0.1452,-0.25393 0.2666,-0.3227 2.69544,-1.5269 5.93397,-1.88628 8.85924,-2.67904 27.49726,-6.62574 18.12705,-45.51274 -9.37022,-38.887 z" /></g><text
       xml:space="preserve"
       style="font-style:normal;font-variant:normal;font-weight:normal;font-stretch:normal;font-size:116.436px;font-family:SourceCodeVF;-inkscape-font-specification:'SourceCodeVF, @wght=587';font-variant-ligatures:normal;font-variant-caps:normal;font-variant-numeric:normal;font-variant-east-asian:normal;font-variation-settings:'wght' 587;fill:#ffffff;fill-opacity:1;stroke:#ffffff;stroke-width:7.53949;stroke-opacity:0.417912"
       x="438.91653"
       y="245.77629"
       id="text1"><tspan
         sodipodi:role="line"
         id="tspan1"
         x="438.91653"
         y="245.77629"
         style="font-style:normal;font-variant:normal;font-weight:normal;font-stretch:normal;font-size:116.436px;font-family:SourceCodeVF;-inkscape-font-specification:'SourceCodeVF, @wght=587';font-variant-ligatures:normal;font-variant-caps:normal;font-variant-numeric:normal;font-variant-east-asian:normal;font-variation-settings:'wght' 587;fill:#ffffff;fill-opacity:1;stroke:#ffffff;stroke-width:7.53949;stroke-opacity:0.417912" /><tspan
         sodipodi:role="line"
         x="438.91653"
         y="391.32129"
         id="tspan3"
         style="font-style:normal;font-variant:normal;font-weight:normal;font-stretch:normal;font-size:116.436px;font-family:SourceCodeVF;-inkscape-font-specification:'SourceCodeVF, @wght=587';font-variant-ligatures:normal;font-variant-caps:normal;font-variant-numeric:normal;font-variant-east-asian:normal;font-variation-settings:'wght' 587;fill:#ffffff;fill-opacity:1;stroke:#ffffff;stroke-width:7.53949;stroke-opacity:0.417912">Goop Studios</tspan></text></g></svg>
