<?xml version="1.0" encoding="UTF-8"?>
<svg xmlns="http://www.w3.org/2000/svg" xmlns:xlink="http://www.w3.org/1999/xlink" width="128px" height="128px" viewBox="0 0 128 128" version="1.1">
<g id="surface1">
<path style="fill-rule:nonzero;fill:rgb(16.470588%,95.686275%,25.882353%);fill-opacity:1;stroke-width:63.2009;stroke-linecap:butt;stroke-linejoin:miter;stroke:rgb(3.137255%,70.588235%,3.137255%);stroke-opacity:0.564706;stroke-miterlimit:4;" d="M 240.875 110.5625 C 232.40625 111.203125 224.53125 114.78125 216.4375 117.078125 C 155.875 137.375 100.203125 174.34375 61.234375 225.328125 C 40.734375 253.453125 28.421875 288.875 32.65625 323.875 C 37.359375 358.359375 63.265625 388.625 96.28125 399.3125 C 127.34375 411.59375 161.328125 411.859375 194.234375 411.671875 C 249.140625 410.75 303.84375 405.640625 358.6875 403.609375 C 387.34375 401.78125 416.921875 394.921875 439.921875 376.859375 C 464.625 358.453125 481.21875 328.375 480.421875 297.21875 C 480.328125 264.171875 463.734375 232.421875 438.828125 211.171875 C 413.84375 187.671875 385.296875 168.421875 356.96875 149.25 C 322.21875 127.359375 282.5625 110.5625 240.875 110.5625 Z M 240.875 110.5625 " transform="matrix(0.25,0,0,0.25,0,0)"/>
<path style="fill-rule:nonzero;fill:rgb(100%,99.215686%,99.215686%);fill-opacity:0.870588;stroke-width:9.755;stroke-linecap:butt;stroke-linejoin:miter;stroke:rgb(100%,100%,100%);stroke-opacity:0.545098;stroke-miterlimit:4;" d="M 169.59375 130.296875 C 164.671875 131.390625 159.734375 132.703125 155.109375 134.78125 C 151.578125 136.375 148.3125 138.453125 145.0625 140.515625 C 141.140625 142.453125 137.890625 145.34375 134.40625 147.90625 C 134.21875 148.03125 134.03125 148.140625 133.859375 148.265625 C 133.328125 148.640625 132.5625 149.109375 132 149.546875 C 129.390625 151.484375 128.1875 152.515625 129.796875 151.15625 C 127.546875 152.625 125.59375 154.484375 123.46875 156.125 C 121.21875 157.859375 119.296875 159.9375 117.359375 162.015625 C 116.4375 163.015625 116.875 163.09375 116.375 162.984375 C 114.203125 164.71875 118.65625 161.265625 114.78125 164.28125 C 114.640625 164.390625 115.03125 164.03125 115.171875 163.921875 C 115.421875 163.734375 116.203125 163.234375 115.9375 163.390625 C 115.3125 163.765625 114.703125 164.1875 114.09375 164.578125 C 111.796875 166.21875 112.796875 165.453125 110.453125 167.375 C 110.296875 167.515625 109.8125 167.90625 109.96875 167.78125 C 110.4375 167.4375 111.75 166.34375 111.328125 166.734375 C 106.578125 170.921875 109.234375 168.046875 106.03125 171.828125 C 111.515625 165.390625 104.890625 173.625 104.171875 174.40625 C 103.25 175.4375 105.765625 172.125 106.671875 171.078125 C 106.703125 171.046875 106.609375 171.125 106.578125 171.15625 C 105.75 172.046875 104.9375 172.9375 104.109375 173.828125 C 102.578125 175.65625 105.25 172.8125 105.671875 172.1875 C 106.078125 171.59375 104.640625 173.203125 104.125 173.703125 C 103.90625 173.90625 104.921875 172.890625 104.71875 173.09375 C 102.671875 175.078125 103.265625 174.484375 101.796875 176.109375 C 99.234375 179.515625 100.515625 177.640625 98.703125 180.625 C 98.46875 181 99.15625 179.875 99.375 179.5 C 99.390625 179.46875 99.34375 179.53125 99.328125 179.546875 C 99.015625 179.984375 98.71875 180.4375 98.40625 180.875 C 98.234375 181.125 98.734375 180.40625 98.890625 180.171875 C 96.703125 182.71875 95.96875 185.4375 94.546875 188.625 C 94.46875 188.796875 94.625 188.25 94.6875 188.078125 C 95.265625 186.765625 95.890625 185.484375 96.484375 184.1875 C 81.171875 207.96875 114.796875 229.625 130.109375 205.84375 C 130.9375 204.203125 131.8125 202.578125 132.578125 200.90625 C 132.8125 200.390625 133.359375 198.78125 133.09375 199.28125 C 128.34375 208.1875 132.28125 202.171875 130.171875 205.109375 C 130.0625 205.25 130.375 204.84375 130.46875 204.71875 C 131.828125 202.890625 132.09375 202.546875 133.65625 200.0625 C 134.21875 199.203125 130.28125 205.40625 131.8125 202.546875 C 131.328125 202.96875 128.84375 205.296875 132.796875 201.59375 C 133 201.40625 132 202.328125 132.1875 202.140625 C 135.6875 198.390625 134.171875 200.296875 135.3125 198.859375 C 130.484375 203.828125 135.625 198.75 136.03125 198.25 C 136.921875 197.15625 139.625 193.96875 138.546875 194.859375 C 137.140625 196.03125 135.953125 197.5 135.015625 199.09375 C 134.3125 200.265625 136.890625 197.09375 137.828125 196.09375 C 135.640625 198.546875 137 197.1875 133.578125 199.96875 C 132.9375 200.65625 135.078125 198.875 135.828125 198.3125 C 137.78125 196.8125 136.078125 198.03125 136.0625 198.046875 C 136.015625 198.0625 136.140625 197.96875 136.171875 197.921875 C 135.171875 198.328125 136.4375 197.828125 138.203125 196.625 C 139.5625 195.71875 141.0625 194.5 142.3125 193.4375 C 142.734375 193.078125 143.140625 192.703125 143.546875 192.34375 C 145.0625 190.875 146.65625 189.4375 147.953125 187.75 C 150.171875 186.046875 151 185.140625 152.78125 183.90625 C 153.46875 183.390625 154.1875 182.9375 154.828125 182.375 C 155.234375 182.015625 153.921875 182.921875 153.515625 183.265625 C 153.171875 183.546875 154.265625 182.796875 154.625 182.546875 C 155.875 181.71875 157.078125 180.8125 158.328125 179.96875 C 161.015625 177.953125 163.484375 175.6875 166.5625 174.25 C 167.65625 173.546875 168.78125 172.921875 169.84375 172.1875 C 169.953125 172.109375 169.984375 171.9375 170.109375 171.859375 C 172.8125 170.34375 176.046875 169.984375 178.96875 169.1875 C 206.46875 162.5625 197.09375 123.671875 169.59375 130.296875 Z M 169.59375 130.296875 " transform="matrix(0.25,0,0,0.25,0,0)"/>
</g>
</svg>
